<svg width="1024" height="1024" viewBox="0 0 1024 1024" xmlns="http://www.w3.org/2000/svg">
  <!-- Gradient Definitions -->
  <defs>
    <!-- Healing gradient (teal to blue) -->
    <linearGradient id="healingGradient" x1="0%" y1="0%" x2="100%" y2="100%">
      <stop offset="0%" style="stop-color:#4ECDC4;stop-opacity:1" />
      <stop offset="50%" style="stop-color:#667eea;stop-opacity:1" />
      <stop offset="100%" style="stop-color:#764ba2;stop-opacity:1" />
    </linearGradient>
    
    <!-- Light glow gradient -->
    <radialGradient id="glowGradient" cx="50%" cy="30%">
      <stop offset="0%" style="stop-color:#FFE5E5;stop-opacity:0.8" />
      <stop offset="50%" style="stop-color:#FFD1B3;stop-opacity:0.4" />
      <stop offset="100%" style="stop-color:#FFC8C8;stop-opacity:0" />
    </radialGradient>
    
    <!-- Sunrise gradient for background -->
    <linearGradient id="sunriseGradient" x1="0%" y1="0%" x2="0%" y2="100%">
      <stop offset="0%" style="stop-color:#ffeaa7;stop-opacity:0.3" />
      <stop offset="100%" style="stop-color:#fab1a0;stop-opacity:0.2" />
    </linearGradient>
  </defs>
  
  <!-- Background Circle -->
  <circle cx="512" cy="512" r="480" fill="url(#sunriseGradient)"/>
  
  <!-- Outer Circle (Frame) -->
  <circle cx="512" cy="512" r="480" fill="none" stroke="url(#healingGradient)" stroke-width="8" opacity="0.3"/>
  
  <!-- Divine Light Rays (Top) -->
  <g opacity="0.6">
    <path d="M 512 150 L 512 250" stroke="url(#healingGradient)" stroke-width="6" stroke-linecap="round"/>
    <path d="M 412 180 L 432 260" stroke="url(#healingGradient)" stroke-width="5" stroke-linecap="round" opacity="0.7"/>
    <path d="M 612 180 L 592 260" stroke="url(#healingGradient)" stroke-width="5" stroke-linecap="round" opacity="0.7"/>
    <path d="M 332 240 L 372 300" stroke="url(#healingGradient)" stroke-width="4" stroke-linecap="round" opacity="0.5"/>
    <path d="M 692 240 L 652 300" stroke="url(#healingGradient)" stroke-width="4" stroke-linecap="round" opacity="0.5"/>
  </g>
  
  <!-- Glow/Aura around center -->
  <circle cx="512" cy="400" r="250" fill="url(#glowGradient)" opacity="0.5"/>
  
  <!-- Praying Hands (Stylized) -->
  <g transform="translate(512, 512)">
    <!-- Left Hand -->
    <path d="M -80 -50 
             Q -90 -100, -80 -150
             Q -75 -180, -60 -200
             Q -50 -210, -40 -200
             Q -30 -190, -30 -170
             L -30 -50
             Q -30 0, -50 40
             L -60 80
             Q -65 100, -55 120
             L -50 130
             Q -45 140, -35 135
             Q -25 130, -25 115
             L -20 60
             Q -20 20, -30 -20
             L -30 -50
             Z" 
             fill="url(#healingGradient)" 
             opacity="0.9"
             stroke="#ffffff" 
             stroke-width="2"/>
    
    <!-- Right Hand -->
    <path d="M 80 -50 
             Q 90 -100, 80 -150
             Q 75 -180, 60 -200
             Q 50 -210, 40 -200
             Q 30 -190, 30 -170
             L 30 -50
             Q 30 0, 50 40
             L 60 80
             Q 65 100, 55 120
             L 50 130
             Q 45 140, 35 135
             Q 25 130, 25 115
             L 20 60
             Q 20 20, 30 -20
             L 30 -50
             Z" 
             fill="url(#healingGradient)" 
             opacity="0.9"
             stroke="#ffffff" 
             stroke-width="2"/>
    
    <!-- Joined thumbs (center) -->
    <ellipse cx="0" cy="-40" rx="25" ry="40" fill="url(#healingGradient)" opacity="0.85"/>
    
    <!-- Fingers touching (detail) -->
    <path d="M -35 -180 Q 0 -200, 35 -180" 
          fill="none" 
          stroke="#ffffff" 
          stroke-width="3" 
          stroke-linecap="round"/>
  </g>
  
  <!-- Heart Symbol (Above hands) -->
  <g transform="translate(512, 280)">
    <path d="M 0 20 
             C -40 -20, -80 -20, -80 10
             Q -80 40, 0 80
             Q 80 40, 80 10
             C 80 -20, 40 -20, 0 20
             Z"
           fill="#ff6b9d"
           opacity="0.7"
           filter="url(#softGlow)"/>
  </g>
  
  <!-- Soft glow filter -->
  <defs>
    <filter id="softGlow" x="-50%" y="-50%" width="200%" height="200%">
      <feGaussianBlur in="SourceGraphic" stdDeviation="4"/>
      <feColorMatrix type="matrix" values="
        1 0 0 0 0
        0 1 0 0 0
        0 0 1 0 0
        0 0 0 0.6 0"/>
    </filter>
  </defs>
  
  <!-- Decorative Stars (Sparkle effect) -->
  <g opacity="0.6" fill="url(#healingGradient)">
    <path d="M 300 350 L 305 355 L 310 350 L 305 345 Z"/>
    <path d="M 724 350 L 729 355 L 734 350 L 729 345 Z"/>
    <path d="M 380 600 L 385 605 L 390 600 L 385 595 Z"/>
    <path d="M 644 600 L 649 605 L 654 600 L 649 595 Z"/>
  </g>
  
  <!-- Text: HealPray (Optional - can be removed) -->
  <text x="512" y="850" 
        font-family="Arial, sans-serif" 
        font-size="80" 
        font-weight="bold" 
        fill="url(#healingGradient)" 
        text-anchor="middle">
    HealPray
  </text>
  
  <!-- Subtitle -->
  <text x="512" y="910" 
        font-family="Arial, sans-serif" 
        font-size="32" 
        fill="#667eea" 
        text-anchor="middle"
        opacity="0.8">
    Spiritual Wellness
  </text>
</svg>
